<svg width="48" height="48" viewBox="0 0 48 48" fill="none" xmlns="http://www.w3.org/2000/svg">
<g id="Frame 441">
<g id="equal">
<rect id="Rectangle 139" x="11.501" y="11" width="26" height="13" fill="#CCE2F0"/>
<rect id="Rectangle 140" x="11.501" y="24" width="26" height="13" fill="#CCE2F0"/>
</g>
<g id="calculator">
<path id="Path" d="M14.6666 0.75C15.2649 0.75 15.75 1.23502 15.75 1.83333V20.1666C15.75 20.7649 15.2649 21.25 14.6666 21.25H1.83333C1.23502 21.25 0.75 20.7649 0.75 20.1666V1.83333C0.75 1.23502 1.23502 0.75 1.83333 0.75H14.6666Z" stroke="#262626" stroke-width="1.5"/>
<path id="Path_2" fill-rule="evenodd" clip-rule="evenodd" d="M4.41687 15.667C4.83108 15.667 5.16687 16.0028 5.16687 16.417C5.16687 16.8312 4.83108 17.167 4.41687 17.167C4.00266 17.167 3.66687 16.8312 3.66687 16.417C3.66687 16.0028 4.00266 15.667 4.41687 15.667Z" fill="#262626" stroke="#262626" stroke-width="0.75"/>
<path id="Path_3" fill-rule="evenodd" clip-rule="evenodd" d="M8.08301 15.667C8.49722 15.667 8.83301 16.0028 8.83301 16.417C8.83301 16.8312 8.49722 17.167 8.08301 17.167C7.66879 17.167 7.33301 16.8312 7.33301 16.417C7.33301 16.0028 7.66879 15.667 8.08301 15.667Z" fill="#262626" stroke="#262626" stroke-width="0.75"/>
<path id="Path_4" fill-rule="evenodd" clip-rule="evenodd" d="M11.751 15.667C12.1652 15.667 12.501 16.0028 12.501 16.417C12.501 16.8312 12.1652 17.167 11.751 17.167C11.3368 17.167 11.001 16.8312 11.001 16.417C11.001 16.0028 11.3368 15.667 11.751 15.667Z" fill="#262626" stroke="#262626" stroke-width="0.75"/>
<path id="Path_5" fill-rule="evenodd" clip-rule="evenodd" d="M4.41687 12C4.83108 12 5.16687 12.3358 5.16687 12.75C5.16687 13.1642 4.83108 13.5 4.41687 13.5C4.00266 13.5 3.66687 13.1642 3.66687 12.75C3.66687 12.3358 4.00266 12 4.41687 12Z" fill="#262626" stroke="#262626" stroke-width="0.75"/>
<path id="Path_6" fill-rule="evenodd" clip-rule="evenodd" d="M8.08301 11.917C8.49722 11.917 8.83301 12.2528 8.83301 12.667C8.83301 13.0812 8.49722 13.417 8.08301 13.417C7.66879 13.417 7.33301 13.0812 7.33301 12.667C7.33301 12.2528 7.66879 11.917 8.08301 11.917Z" fill="#262626" stroke="#262626" stroke-width="0.75"/>
<path id="Path_7" fill-rule="evenodd" clip-rule="evenodd" d="M11.751 11.917C12.1652 11.917 12.501 12.2528 12.501 12.667C12.501 13.0812 12.1652 13.417 11.751 13.417C11.3368 13.417 11.001 13.0812 11.001 12.667C11.001 12.2528 11.3368 11.917 11.751 11.917Z" fill="#262626" stroke="#262626" stroke-width="0.75"/>
<path id="Path_8" fill-rule="evenodd" clip-rule="evenodd" d="M4.41687 8.25C4.83108 8.25 5.16687 8.58579 5.16687 9C5.16687 9.41421 4.83108 9.75 4.41687 9.75C4.00266 9.75 3.66687 9.41421 3.66687 9C3.66687 8.58579 4.00266 8.25 4.41687 8.25Z" fill="#262626" stroke="#262626" stroke-width="0.75"/>
<path id="Path_9" fill-rule="evenodd" clip-rule="evenodd" d="M8.08301 8.25C8.49722 8.25 8.83301 8.58579 8.83301 9C8.83301 9.41421 8.49722 9.75 8.08301 9.75C7.66879 9.75 7.33301 9.41421 7.33301 9C7.33301 8.58579 7.66879 8.25 8.08301 8.25Z" fill="#262626" stroke="#262626" stroke-width="0.75"/>
<path id="Path_10" fill-rule="evenodd" clip-rule="evenodd" d="M11.751 8.25C12.1652 8.25 12.501 8.58579 12.501 9C12.501 9.41421 12.1652 9.75 11.751 9.75C11.3368 9.75 11.001 9.41421 11.001 9C11.001 8.58579 11.3368 8.25 11.751 8.25Z" fill="#262626" stroke="#262626" stroke-width="0.75"/>
<path id="Path_11" d="M12.8335 5H3.66687" stroke="#262626" stroke-width="1.5"/>
</g>
<g id="maths">
<line id="Line 73" x1="37.375" y1="27.4697" x2="48" y2="27.4697" stroke="#262626" stroke-width="1.5"/>
<g id="Group 90">
<line id="Line 71" x1="23" y1="27.4697" x2="33.625" y2="27.4697" stroke="#262626" stroke-width="1.5"/>
<line id="Line 72" x1="28.126" y1="22" x2="28.126" y2="32.5732" stroke="#262626" stroke-width="1.5"/>
</g>
<g id="Group 91">
<line id="Line 74" y1="-0.75" x2="10.5991" y2="-0.75" transform="matrix(0.708833 0.705377 -0.708833 0.705377 23.8916 39.7568)" stroke="#262626" stroke-width="1.5"/>
<line id="Line 75" y1="-0.75" x2="10.5991" y2="-0.75" transform="matrix(-0.708833 0.705377 -0.708833 -0.705377 31.4043 38.4375)" stroke="#262626" stroke-width="1.5"/>
</g>
<g id="Group 92">
<line id="Line 76" x1="37.3757" y1="43.0186" x2="48.0007" y2="43.0186" stroke="#262626" stroke-width="1.5"/>
<path id="Path_12" fill-rule="evenodd" clip-rule="evenodd" d="M42.6882 38.1709C43.206 38.1709 43.6257 38.5886 43.6257 39.1038C43.6257 39.6191 43.206 40.0368 42.6882 40.0368C42.1705 40.0368 41.7507 39.6191 41.7507 39.1038C41.7507 38.5886 42.1705 38.1709 42.6882 38.1709Z" fill="#262626" stroke="#262626" stroke-width="0.75"/>
<path id="Path_13" fill-rule="evenodd" clip-rule="evenodd" d="M42.6882 45.6338C43.206 45.6338 43.6257 46.0515 43.6257 46.5667C43.6257 47.082 43.206 47.4996 42.6882 47.4996C42.1705 47.4996 41.7507 47.082 41.7507 46.5667C41.7507 46.0515 42.1705 45.6338 42.6882 45.6338Z" fill="#262626" stroke="#262626" stroke-width="0.75"/>
</g>
</g>
</g>
</svg>
